<svg width="300" height="45" viewBox="0 0 300 45" fill="none" xmlns="http://www.w3.org/2000/svg">
<path d="M293.651 0H6.34921C2.84264 0 0 2.01472 0 4.5V40.5C0 42.9853 2.84264 45 6.34921 45H293.651C297.157 45 300 42.9853 300 40.5V4.5C300 2.01472 297.157 0 293.651 0Z" fill="#5B5B5B"/>
<path d="M115.022 26.6785V28H110.168V26.6785H115.022ZM110.632 18.3312V28H108.966V18.3312H110.632ZM115.845 24.4871V24.3344C115.845 23.8164 115.921 23.3361 116.071 22.8934C116.222 22.4462 116.439 22.0589 116.722 21.7312C117.01 21.3992 117.359 21.1424 117.771 20.9609C118.187 20.775 118.657 20.682 119.179 20.682C119.706 20.682 120.175 20.775 120.587 20.9609C121.003 21.1424 121.355 21.3992 121.643 21.7312C121.93 22.0589 122.149 22.4462 122.3 22.8934C122.451 23.3361 122.526 23.8164 122.526 24.3344V24.4871C122.526 25.0051 122.451 25.4854 122.3 25.9281C122.149 26.3708 121.93 26.7582 121.643 27.0902C121.355 27.4178 121.005 27.6746 120.593 27.8605C120.182 28.0421 119.715 28.1328 119.192 28.1328C118.665 28.1328 118.194 28.0421 117.778 27.8605C117.366 27.6746 117.016 27.4178 116.729 27.0902C116.441 26.7582 116.222 26.3708 116.071 25.9281C115.921 25.4854 115.845 25.0051 115.845 24.4871ZM117.446 24.3344V24.4871C117.446 24.8103 117.479 25.1158 117.545 25.4035C117.612 25.6913 117.716 25.9436 117.857 26.1605C117.999 26.3775 118.181 26.5479 118.402 26.6719C118.623 26.7958 118.887 26.8578 119.192 26.8578C119.489 26.8578 119.746 26.7958 119.962 26.6719C120.184 26.5479 120.365 26.3775 120.507 26.1605C120.649 25.9436 120.753 25.6913 120.819 25.4035C120.89 25.1158 120.925 24.8103 120.925 24.4871V24.3344C120.925 24.0156 120.89 23.7146 120.819 23.4312C120.753 23.1435 120.646 22.8889 120.5 22.6676C120.359 22.4462 120.177 22.2736 119.956 22.1496C119.739 22.0212 119.48 21.957 119.179 21.957C118.878 21.957 118.617 22.0212 118.395 22.1496C118.178 22.2736 117.999 22.4462 117.857 22.6676C117.716 22.8889 117.612 23.1435 117.545 23.4312C117.479 23.7146 117.446 24.0156 117.446 24.3344ZM128.469 20.8148H129.923V27.8008C129.923 28.4471 129.786 28.9961 129.512 29.4477C129.237 29.8992 128.854 30.2423 128.363 30.477C127.871 30.716 127.303 30.8355 126.656 30.8355C126.382 30.8355 126.076 30.7957 125.74 30.716C125.408 30.6363 125.085 30.5079 124.77 30.3309C124.46 30.1582 124.201 29.9302 123.993 29.6469L124.744 28.7039C125.001 29.0094 125.284 29.2329 125.594 29.3746C125.904 29.5163 126.229 29.5871 126.57 29.5871C126.937 29.5871 127.249 29.5185 127.506 29.3813C127.767 29.2484 127.969 29.0514 128.111 28.7902C128.252 28.529 128.323 28.2103 128.323 27.834V22.4418L128.469 20.8148ZM123.588 24.4871V24.3477C123.588 23.8031 123.655 23.3073 123.787 22.8602C123.92 22.4086 124.111 22.0212 124.359 21.698C124.607 21.3704 124.908 21.1203 125.262 20.9477C125.616 20.7706 126.017 20.682 126.464 20.682C126.929 20.682 127.325 20.7661 127.652 20.9344C127.984 21.1026 128.261 21.3439 128.482 21.6582C128.704 21.9681 128.876 22.34 129 22.7738C129.129 23.2033 129.224 23.6814 129.286 24.2082V24.6531C129.228 25.1667 129.131 25.6359 128.994 26.0609C128.857 26.4859 128.675 26.8534 128.449 27.1633C128.223 27.4732 127.945 27.7122 127.612 27.8805C127.285 28.0487 126.898 28.1328 126.45 28.1328C126.012 28.1328 125.616 28.0421 125.262 27.8605C124.912 27.679 124.611 27.4245 124.359 27.0969C124.111 26.7693 123.92 26.3841 123.787 25.9414C123.655 25.4943 123.588 25.0095 123.588 24.4871ZM125.189 24.3477V24.4871C125.189 24.8147 125.22 25.1202 125.282 25.4035C125.348 25.6868 125.448 25.937 125.58 26.1539C125.718 26.3664 125.89 26.5346 126.098 26.6586C126.311 26.7781 126.561 26.8379 126.849 26.8379C127.225 26.8379 127.533 26.7582 127.772 26.5988C128.015 26.4395 128.201 26.2247 128.33 25.9547C128.462 25.6802 128.555 25.3747 128.609 25.0383V23.8363C128.582 23.5751 128.527 23.3316 128.443 23.1059C128.363 22.8801 128.254 22.6831 128.117 22.5148C127.98 22.3422 127.807 22.2094 127.599 22.1164C127.391 22.019 127.145 21.9703 126.862 21.9703C126.574 21.9703 126.324 22.0323 126.112 22.1562C125.899 22.2802 125.724 22.4507 125.587 22.6676C125.454 22.8845 125.355 23.1368 125.288 23.4246C125.222 23.7124 125.189 24.0201 125.189 24.3477ZM133.297 20.8148V28H131.69V20.8148H133.297ZM131.584 18.9289C131.584 18.6854 131.663 18.484 131.823 18.3246C131.986 18.1608 132.212 18.0789 132.5 18.0789C132.783 18.0789 133.007 18.1608 133.171 18.3246C133.335 18.484 133.416 18.6854 133.416 18.9289C133.416 19.168 133.335 19.3672 133.171 19.5266C133.007 19.6859 132.783 19.7656 132.5 19.7656C132.212 19.7656 131.986 19.6859 131.823 19.5266C131.663 19.3672 131.584 19.168 131.584 18.9289ZM136.637 22.3488V28H135.037V20.8148H136.544L136.637 22.3488ZM136.352 24.1418L135.834 24.1352C135.838 23.626 135.909 23.159 136.046 22.734C136.188 22.309 136.383 21.9437 136.63 21.6383C136.883 21.3328 137.184 21.0982 137.534 20.9344C137.883 20.7661 138.273 20.682 138.702 20.682C139.048 20.682 139.36 20.7307 139.639 20.8281C139.922 20.9211 140.163 21.0738 140.363 21.2863C140.566 21.4988 140.721 21.7755 140.827 22.1164C140.934 22.4529 140.987 22.8668 140.987 23.3582V28H139.38V23.3516C139.38 23.0062 139.329 22.734 139.227 22.5348C139.13 22.3311 138.986 22.1872 138.795 22.1031C138.609 22.0146 138.377 21.9703 138.098 21.9703C137.824 21.9703 137.578 22.0279 137.361 22.143C137.144 22.2581 136.96 22.4152 136.81 22.6145C136.664 22.8137 136.551 23.0439 136.471 23.3051C136.391 23.5663 136.352 23.8452 136.352 24.1418ZM147.959 26.4062L149.62 20.8148H150.642L150.363 22.4883L148.69 28H147.773L147.959 26.4062ZM146.983 20.8148L148.278 26.4328L148.384 28H147.362L145.416 20.8148H146.983ZM152.196 26.3664L153.451 20.8148H155.012L153.073 28H152.05L152.196 26.3664ZM150.815 20.8148L152.455 26.3398L152.661 28H151.745L150.051 22.4816L149.772 20.8148H150.815ZM157.814 20.8148V28H156.207V20.8148H157.814ZM156.101 18.9289C156.101 18.6854 156.18 18.484 156.34 18.3246C156.504 18.1608 156.729 18.0789 157.017 18.0789C157.301 18.0789 157.524 18.1608 157.688 18.3246C157.852 18.484 157.934 18.6854 157.934 18.9289C157.934 19.168 157.852 19.3672 157.688 19.5266C157.524 19.6859 157.301 19.7656 157.017 19.7656C156.729 19.7656 156.504 19.6859 156.34 19.5266C156.18 19.3672 156.101 19.168 156.101 18.9289ZM162.861 20.8148V21.9836H158.81V20.8148H162.861ZM159.979 19.0551H161.579V26.0145C161.579 26.2358 161.61 26.4062 161.672 26.5258C161.739 26.6409 161.829 26.7184 161.945 26.7582C162.06 26.798 162.195 26.818 162.35 26.818C162.46 26.818 162.567 26.8113 162.668 26.798C162.77 26.7848 162.852 26.7715 162.914 26.7582L162.921 27.9801C162.788 28.0199 162.633 28.0553 162.456 28.0863C162.283 28.1173 162.084 28.1328 161.858 28.1328C161.491 28.1328 161.165 28.0686 160.882 27.9402C160.599 27.8074 160.377 27.5927 160.218 27.2961C160.059 26.9995 159.979 26.6055 159.979 26.1141V19.0551ZM165.677 17.8V28H164.083V17.8H165.677ZM165.398 24.1418L164.88 24.1352C164.884 23.6393 164.953 23.1811 165.086 22.7605C165.223 22.34 165.413 21.9747 165.657 21.6648C165.905 21.3505 166.201 21.1092 166.546 20.941C166.892 20.7684 167.275 20.682 167.695 20.682C168.049 20.682 168.368 20.7307 168.652 20.8281C168.939 20.9255 169.187 21.0827 169.395 21.2996C169.603 21.5121 169.761 21.791 169.867 22.1363C169.977 22.4772 170.033 22.8934 170.033 23.3848V28H168.426V23.3715C168.426 23.0262 168.375 22.7517 168.273 22.548C168.176 22.3444 168.032 22.1983 167.841 22.1098C167.651 22.0168 167.419 21.9703 167.144 21.9703C166.856 21.9703 166.602 22.0279 166.38 22.143C166.164 22.2581 165.982 22.4152 165.836 22.6145C165.69 22.8137 165.579 23.0439 165.504 23.3051C165.433 23.5663 165.398 23.8452 165.398 24.1418ZM181.528 26.6785V28H176.395V26.6785H181.528ZM176.866 18.3312V28H175.199V18.3312H176.866ZM180.857 22.3687V23.6703H176.395V22.3687H180.857ZM181.495 18.3312V19.6594H176.395V18.3312H181.495ZM184.33 22.2758V28H182.73V20.8148H184.237L184.33 22.2758ZM184.071 24.1418L183.527 24.1352C183.527 23.6393 183.589 23.1811 183.713 22.7605C183.836 22.34 184.018 21.9747 184.257 21.6648C184.496 21.3505 184.793 21.1092 185.147 20.941C185.505 20.7684 185.919 20.682 186.389 20.682C186.716 20.682 187.015 20.7307 187.285 20.8281C187.56 20.9211 187.796 21.0694 187.996 21.273C188.199 21.4767 188.354 21.7379 188.461 22.0566C188.571 22.3754 188.627 22.7605 188.627 23.2121V28H187.026V23.3516C187.026 23.0018 186.973 22.7273 186.867 22.5281C186.765 22.3289 186.617 22.1872 186.422 22.1031C186.232 22.0146 186.004 21.9703 185.738 21.9703C185.437 21.9703 185.18 22.0279 184.968 22.143C184.76 22.2581 184.589 22.4152 184.456 22.6145C184.323 22.8137 184.226 23.0439 184.164 23.3051C184.102 23.5663 184.071 23.8452 184.071 24.1418ZM188.527 23.7168L187.777 23.8828C187.777 23.449 187.836 23.0395 187.956 22.6543C188.08 22.2647 188.259 21.9238 188.494 21.6316C188.733 21.335 189.027 21.1026 189.377 20.9344C189.727 20.7661 190.127 20.682 190.579 20.682C190.946 20.682 191.274 20.7329 191.562 20.8348C191.854 20.9322 192.102 21.0871 192.305 21.2996C192.509 21.5121 192.664 21.7888 192.77 22.1297C192.877 22.4661 192.93 22.8734 192.93 23.3516V28H191.323V23.3449C191.323 22.9819 191.27 22.7008 191.163 22.5016C191.061 22.3023 190.915 22.1651 190.725 22.0898C190.535 22.0102 190.307 21.9703 190.041 21.9703C189.793 21.9703 189.574 22.0168 189.384 22.1098C189.198 22.1983 189.04 22.3245 188.912 22.4883C188.784 22.6477 188.686 22.8314 188.62 23.0395C188.558 23.2475 188.527 23.4733 188.527 23.7168ZM198.627 26.559V23.1324C198.627 22.8757 198.581 22.6543 198.488 22.4684C198.395 22.2824 198.253 22.1385 198.063 22.0367C197.877 21.9349 197.642 21.884 197.359 21.884C197.098 21.884 196.872 21.9283 196.682 22.0168C196.491 22.1053 196.343 22.2249 196.237 22.3754C196.13 22.5259 196.077 22.6964 196.077 22.8867H194.484C194.484 22.6034 194.552 22.3289 194.689 22.0633C194.827 21.7977 195.026 21.5608 195.287 21.3527C195.548 21.1447 195.86 20.9809 196.223 20.8613C196.586 20.7418 196.994 20.682 197.445 20.682C197.985 20.682 198.464 20.7728 198.88 20.9543C199.3 21.1358 199.63 21.4103 199.869 21.7777C200.113 22.1408 200.234 22.5967 200.234 23.1457V26.3398C200.234 26.6674 200.257 26.9618 200.301 27.223C200.349 27.4798 200.418 27.7034 200.507 27.8937V28H198.866C198.791 27.8273 198.731 27.6082 198.687 27.3426C198.647 27.0725 198.627 26.8113 198.627 26.559ZM198.86 23.6305L198.873 24.6199H197.724C197.428 24.6199 197.166 24.6487 196.941 24.7062C196.715 24.7594 196.527 24.8391 196.376 24.9453C196.226 25.0516 196.113 25.1799 196.038 25.3305C195.962 25.481 195.925 25.6514 195.925 25.8418C195.925 26.0322 195.969 26.207 196.057 26.3664C196.146 26.5214 196.274 26.6431 196.443 26.7316C196.615 26.8202 196.823 26.8645 197.067 26.8645C197.394 26.8645 197.68 26.798 197.923 26.6652C198.171 26.528 198.366 26.362 198.508 26.1672C198.649 25.968 198.725 25.7798 198.734 25.6027L199.252 26.3133C199.198 26.4948 199.108 26.6896 198.979 26.8977C198.851 27.1057 198.683 27.3049 198.475 27.4953C198.271 27.6812 198.025 27.834 197.738 27.9535C197.454 28.073 197.127 28.1328 196.755 28.1328C196.285 28.1328 195.867 28.0398 195.5 27.8539C195.132 27.6635 194.844 27.409 194.636 27.0902C194.428 26.7671 194.324 26.4018 194.324 25.9945C194.324 25.6138 194.395 25.2773 194.537 24.9852C194.683 24.6885 194.895 24.4406 195.174 24.2414C195.458 24.0422 195.803 23.8917 196.21 23.7898C196.617 23.6836 197.082 23.6305 197.605 23.6305H198.86ZM203.621 20.8148V28H202.014V20.8148H203.621ZM201.908 18.9289C201.908 18.6854 201.988 18.484 202.147 18.3246C202.311 18.1608 202.536 18.0789 202.824 18.0789C203.108 18.0789 203.331 18.1608 203.495 18.3246C203.659 18.484 203.741 18.6854 203.741 18.9289C203.741 19.168 203.659 19.3672 203.495 19.5266C203.331 19.6859 203.108 19.7656 202.824 19.7656C202.536 19.7656 202.311 19.6859 202.147 19.5266C201.988 19.3672 201.908 19.168 201.908 18.9289ZM207.088 17.8V28H205.48V17.8H207.088Z" fill="white"/>
<path d="M15.2083 30.2917C14.5996 30.2917 14.0793 30.0709 13.6475 29.6294C13.2158 29.188 13 28.6726 13 28.0833V17.9167C13 17.3236 13.2158 16.805 13.6475 16.3608C14.0793 15.9165 14.5996 15.6944 15.2083 15.6944H28.6804C29.2929 15.6944 29.8165 15.9165 30.251 16.3608C30.6855 16.805 30.9027 17.3236 30.9027 17.9167V28.0833C30.9027 28.6726 30.6855 29.188 30.251 29.6294C29.8165 30.0709 29.2929 30.2917 28.6804 30.2917H15.2083ZM21.9444 24.2917L15.2083 19.8056V28.0833H28.6804V19.8056L21.9444 24.2917ZM21.9444 22.3473L28.6319 17.9167H15.2708L21.9444 22.3473ZM15.2013 19.8056V17.9167V28.0833V19.8056Z" fill="#E8EAED"/>
</svg>
