<svg width="300" height="45" viewBox="0 0 300 45" fill="none" xmlns="http://www.w3.org/2000/svg">
<path d="M293.651 0H6.34921C2.84264 0 0 2.01472 0 4.5V40.5C0 42.9853 2.84264 45 6.34921 45H293.651C297.157 45 300 42.9853 300 40.5V4.5C300 2.01472 297.157 0 293.651 0Z" fill="#F2F2F2"/>
<mask id="mask0_2_456" style="mask-type:luminance" maskUnits="userSpaceOnUse" x="13" y="14" width="20" height="20">
<path d="M33 14H13V34H33V14Z" fill="white"/>
</mask>
<g mask="url(#mask0_2_456)">
<path d="M32.6 24.2273C32.6 23.5182 32.5364 22.8364 32.4182 22.1818H23V26.05H28.3818C28.15 27.3 27.4455 28.3591 26.3864 29.0682V31.5773H29.6182C31.5091 29.8364 32.6 27.2727 32.6 24.2273Z" fill="#4285F4"/>
<path d="M23 34C25.7 34 27.9636 33.1045 29.6181 31.5773L26.3863 29.0682C25.4909 29.6682 24.3454 30.0227 23 30.0227C20.3954 30.0227 18.1909 28.2636 17.4045 25.9H14.0636V28.4909C15.7091 31.7591 19.0909 34 23 34Z" fill="#34A853"/>
<path d="M17.4045 25.9C17.2045 25.3 17.0909 24.6591 17.0909 24C17.0909 23.3409 17.2045 22.7 17.4045 22.1V19.5091H14.0636C13.3864 20.8591 13 22.3864 13 24C13 25.6136 13.3864 27.1409 14.0636 28.4909L17.4045 25.9Z" fill="#FBBC04"/>
<path d="M23 17.9773C24.4681 17.9773 25.7863 18.4818 26.8227 19.4727L29.6909 16.6045C27.9591 14.9909 25.6954 14 23 14C19.0909 14 15.7091 16.2409 14.0636 19.5091L17.4045 22.1C18.1909 19.7364 20.3954 17.9773 23 17.9773Z" fill="#E94235"/>
</g>
<path d="M113.334 26.6785V28H108.479V26.6785H113.334ZM108.944 18.3312V28H107.277V18.3312H108.944ZM114.157 24.4871V24.3344C114.157 23.8164 114.232 23.3361 114.383 22.8934C114.533 22.4462 114.75 22.0589 115.034 21.7312C115.321 21.3992 115.671 21.1424 116.083 20.9609C116.499 20.775 116.968 20.682 117.491 20.682C118.017 20.682 118.487 20.775 118.898 20.9609C119.315 21.1424 119.667 21.3992 119.954 21.7312C120.242 22.0589 120.461 22.4462 120.612 22.8934C120.762 23.3361 120.837 23.8164 120.837 24.3344V24.4871C120.837 25.0051 120.762 25.4854 120.612 25.9281C120.461 26.3708 120.242 26.7582 119.954 27.0902C119.667 27.4178 119.317 27.6746 118.905 27.8605C118.493 28.0421 118.026 28.1328 117.504 28.1328C116.977 28.1328 116.506 28.0421 116.089 27.8605C115.678 27.6746 115.328 27.4178 115.04 27.0902C114.752 26.7582 114.533 26.3708 114.383 25.9281C114.232 25.4854 114.157 25.0051 114.157 24.4871ZM115.757 24.3344V24.4871C115.757 24.8103 115.791 25.1158 115.857 25.4035C115.923 25.6913 116.027 25.9436 116.169 26.1605C116.311 26.3775 116.492 26.5479 116.714 26.6719C116.935 26.7958 117.198 26.8578 117.504 26.8578C117.801 26.8578 118.057 26.7958 118.274 26.6719C118.496 26.5479 118.677 26.3775 118.819 26.1605C118.96 25.9436 119.064 25.6913 119.131 25.4035C119.202 25.1158 119.237 24.8103 119.237 24.4871V24.3344C119.237 24.0156 119.202 23.7146 119.131 23.4312C119.064 23.1435 118.958 22.8889 118.812 22.6676C118.67 22.4462 118.489 22.2736 118.268 22.1496C118.051 22.0212 117.792 21.957 117.491 21.957C117.19 21.957 116.928 22.0212 116.707 22.1496C116.49 22.2736 116.311 22.4462 116.169 22.6676C116.027 22.8889 115.923 23.1435 115.857 23.4312C115.791 23.7146 115.757 24.0156 115.757 24.3344ZM126.781 20.8148H128.235V27.8008C128.235 28.4471 128.098 28.9961 127.823 29.4477C127.549 29.8992 127.166 30.2423 126.675 30.477C126.183 30.716 125.614 30.8355 124.968 30.8355C124.693 30.8355 124.388 30.7957 124.052 30.716C123.72 30.6363 123.396 30.5079 123.082 30.3309C122.772 30.1582 122.513 29.9302 122.305 29.6469L123.055 28.7039C123.312 29.0094 123.596 29.2329 123.905 29.3746C124.215 29.5163 124.541 29.5871 124.882 29.5871C125.249 29.5871 125.561 29.5185 125.818 29.3813C126.079 29.2484 126.281 29.0514 126.422 28.7902C126.564 28.529 126.635 28.2103 126.635 27.834V22.4418L126.781 20.8148ZM121.9 24.4871V24.3477C121.9 23.8031 121.966 23.3073 122.099 22.8602C122.232 22.4086 122.422 22.0212 122.67 21.698C122.918 21.3704 123.219 21.1203 123.573 20.9477C123.928 20.7706 124.328 20.682 124.775 20.682C125.24 20.682 125.636 20.7661 125.964 20.9344C126.296 21.1026 126.573 21.3439 126.794 21.6582C127.015 21.9681 127.188 22.34 127.312 22.7738C127.44 23.2033 127.536 23.6814 127.598 24.2082V24.6531C127.54 25.1667 127.443 25.6359 127.305 26.0609C127.168 26.4859 126.987 26.8534 126.761 27.1633C126.535 27.4732 126.256 27.7122 125.924 27.8805C125.597 28.0487 125.209 28.1328 124.762 28.1328C124.324 28.1328 123.928 28.0421 123.573 27.8605C123.224 27.679 122.923 27.4245 122.67 27.0969C122.422 26.7693 122.232 26.3841 122.099 25.9414C121.966 25.4943 121.9 25.0095 121.9 24.4871ZM123.5 24.3477V24.4871C123.5 24.8147 123.531 25.1202 123.593 25.4035C123.66 25.6868 123.759 25.937 123.892 26.1539C124.029 26.3664 124.202 26.5346 124.41 26.6586C124.623 26.7781 124.873 26.8379 125.161 26.8379C125.537 26.8379 125.845 26.7582 126.084 26.5988C126.327 26.4395 126.513 26.2247 126.641 25.9547C126.774 25.6802 126.867 25.3747 126.92 25.0383V23.8363C126.894 23.5751 126.838 23.3316 126.754 23.1059C126.675 22.8801 126.566 22.6831 126.429 22.5148C126.292 22.3422 126.119 22.2094 125.911 22.1164C125.703 22.019 125.457 21.9703 125.174 21.9703C124.886 21.9703 124.636 22.0323 124.423 22.1562C124.211 22.2802 124.036 22.4507 123.899 22.6676C123.766 22.8845 123.666 23.1368 123.6 23.4246C123.534 23.7124 123.5 24.0201 123.5 24.3477ZM131.609 20.8148V28H130.002V20.8148H131.609ZM129.895 18.9289C129.895 18.6854 129.975 18.484 130.134 18.3246C130.298 18.1608 130.524 18.0789 130.812 18.0789C131.095 18.0789 131.319 18.1608 131.482 18.3246C131.646 18.484 131.728 18.6854 131.728 18.9289C131.728 19.168 131.646 19.3672 131.482 19.5266C131.319 19.6859 131.095 19.7656 130.812 19.7656C130.524 19.7656 130.298 19.6859 130.134 19.5266C129.975 19.3672 129.895 19.168 129.895 18.9289ZM134.949 22.3488V28H133.348V20.8148H134.856L134.949 22.3488ZM134.663 24.1418L134.145 24.1352C134.15 23.626 134.221 23.159 134.358 22.734C134.499 22.309 134.694 21.9437 134.942 21.6383C135.195 21.3328 135.496 21.0982 135.845 20.9344C136.195 20.7661 136.585 20.682 137.014 20.682C137.359 20.682 137.671 20.7307 137.95 20.8281C138.234 20.9211 138.475 21.0738 138.674 21.2863C138.878 21.4988 139.033 21.7755 139.139 22.1164C139.245 22.4529 139.298 22.8668 139.298 23.3582V28H137.691V23.3516C137.691 23.0062 137.64 22.734 137.539 22.5348C137.441 22.3311 137.297 22.1872 137.107 22.1031C136.921 22.0146 136.689 21.9703 136.41 21.9703C136.135 21.9703 135.89 22.0279 135.673 22.143C135.456 22.2581 135.272 22.4152 135.121 22.6145C134.975 22.8137 134.862 23.0439 134.783 23.3051C134.703 23.5663 134.663 23.8452 134.663 24.1418ZM146.271 26.4062L147.931 20.8148H148.954L148.675 22.4883L147.002 28H146.085L146.271 26.4062ZM145.295 20.8148L146.59 26.4328L146.696 28H145.673L143.728 20.8148H145.295ZM150.508 26.3664L151.763 20.8148H153.323L151.384 28H150.362L150.508 26.3664ZM149.127 20.8148L150.767 26.3398L150.973 28H150.056L148.363 22.4816L148.084 20.8148H149.127ZM156.126 20.8148V28H154.519V20.8148H156.126ZM154.412 18.9289C154.412 18.6854 154.492 18.484 154.652 18.3246C154.815 18.1608 155.041 18.0789 155.329 18.0789C155.612 18.0789 155.836 18.1608 156 18.3246C156.163 18.484 156.245 18.6854 156.245 18.9289C156.245 19.168 156.163 19.3672 156 19.5266C155.836 19.6859 155.612 19.7656 155.329 19.7656C155.041 19.7656 154.815 19.6859 154.652 19.5266C154.492 19.3672 154.412 19.168 154.412 18.9289ZM161.173 20.8148V21.9836H157.122V20.8148H161.173ZM158.291 19.0551H159.891V26.0145C159.891 26.2358 159.922 26.4062 159.984 26.5258C160.05 26.6409 160.141 26.7184 160.256 26.7582C160.371 26.798 160.506 26.818 160.661 26.818C160.772 26.818 160.878 26.8113 160.98 26.798C161.082 26.7848 161.164 26.7715 161.226 26.7582L161.232 27.9801C161.1 28.0199 160.945 28.0553 160.768 28.0863C160.595 28.1173 160.396 28.1328 160.17 28.1328C159.802 28.1328 159.477 28.0686 159.194 27.9402C158.91 27.8074 158.689 27.5927 158.53 27.2961C158.37 26.9995 158.291 26.6055 158.291 26.1141V19.0551ZM163.988 17.8V28H162.395V17.8H163.988ZM163.709 24.1418L163.191 24.1352C163.196 23.6393 163.264 23.1811 163.397 22.7605C163.534 22.34 163.725 21.9747 163.968 21.6648C164.216 21.3505 164.513 21.1092 164.858 20.941C165.204 20.7684 165.586 20.682 166.007 20.682C166.361 20.682 166.68 20.7307 166.963 20.8281C167.251 20.9255 167.499 21.0827 167.707 21.2996C167.915 21.5121 168.072 21.791 168.179 22.1363C168.289 22.4772 168.345 22.8934 168.345 23.3848V28H166.737V23.3715C166.737 23.0262 166.687 22.7517 166.585 22.548C166.487 22.3444 166.343 22.1983 166.153 22.1098C165.963 22.0168 165.73 21.9703 165.456 21.9703C165.168 21.9703 164.914 22.0279 164.692 22.143C164.475 22.2581 164.294 22.4152 164.148 22.6145C164.002 22.8137 163.891 23.0439 163.816 23.3051C163.745 23.5663 163.709 23.8452 163.709 24.1418ZM180.935 23.0594V26.7516C180.798 26.9331 180.583 27.1323 180.291 27.3492C180.003 27.5617 179.62 27.7454 179.142 27.9004C178.664 28.0553 178.069 28.1328 177.356 28.1328C176.749 28.1328 176.194 28.031 175.689 27.8273C175.184 27.6193 174.748 27.316 174.381 26.9176C174.018 26.5191 173.737 26.0344 173.537 25.4633C173.338 24.8878 173.239 24.2326 173.239 23.4977V22.827C173.239 22.0965 173.329 21.4457 173.511 20.8746C173.697 20.2991 173.962 19.8121 174.308 19.4137C174.653 19.0152 175.069 18.7142 175.556 18.5105C176.048 18.3025 176.603 18.1984 177.223 18.1984C178.015 18.1984 178.671 18.3312 179.189 18.5969C179.711 18.8581 180.114 19.2211 180.397 19.6859C180.681 20.1508 180.86 20.682 180.935 21.2797H179.302C179.248 20.9432 179.144 20.6422 178.989 20.3766C178.839 20.1109 178.622 19.9029 178.339 19.7523C178.06 19.5974 177.697 19.5199 177.25 19.5199C176.864 19.5199 176.526 19.593 176.234 19.7391C175.941 19.8852 175.698 20.0999 175.503 20.3832C175.313 20.6665 175.169 21.0118 175.071 21.4191C174.974 21.8264 174.925 22.2913 174.925 22.8137V23.4977C174.925 24.0289 174.981 24.5004 175.091 24.9121C175.207 25.3238 175.37 25.6714 175.583 25.9547C175.8 26.238 176.063 26.4527 176.373 26.5988C176.683 26.7405 177.033 26.8113 177.422 26.8113C177.803 26.8113 178.115 26.7803 178.359 26.7184C178.602 26.652 178.795 26.5745 178.936 26.4859C179.082 26.393 179.195 26.3044 179.275 26.2203V24.3012H177.263V23.0594H180.935ZM182.316 24.4871V24.3344C182.316 23.8164 182.392 23.3361 182.542 22.8934C182.693 22.4462 182.91 22.0589 183.193 21.7312C183.481 21.3992 183.83 21.1424 184.242 20.9609C184.658 20.775 185.128 20.682 185.65 20.682C186.177 20.682 186.646 20.775 187.058 20.9609C187.474 21.1424 187.826 21.3992 188.114 21.7312C188.401 22.0589 188.621 22.4462 188.771 22.8934C188.922 23.3361 188.997 23.8164 188.997 24.3344V24.4871C188.997 25.0051 188.922 25.4854 188.771 25.9281C188.621 26.3708 188.401 26.7582 188.114 27.0902C187.826 27.4178 187.476 27.6746 187.064 27.8605C186.653 28.0421 186.186 28.1328 185.663 28.1328C185.136 28.1328 184.665 28.0421 184.249 27.8605C183.837 27.6746 183.487 27.4178 183.2 27.0902C182.912 26.7582 182.693 26.3708 182.542 25.9281C182.392 25.4854 182.316 25.0051 182.316 24.4871ZM183.917 24.3344V24.4871C183.917 24.8103 183.95 25.1158 184.016 25.4035C184.083 25.6913 184.187 25.9436 184.329 26.1605C184.47 26.3775 184.652 26.5479 184.873 26.6719C185.094 26.7958 185.358 26.8578 185.663 26.8578C185.96 26.8578 186.217 26.7958 186.434 26.6719C186.655 26.5479 186.836 26.3775 186.978 26.1605C187.12 25.9436 187.224 25.6913 187.29 25.4035C187.361 25.1158 187.396 24.8103 187.396 24.4871V24.3344C187.396 24.0156 187.361 23.7146 187.29 23.4312C187.224 23.1435 187.118 22.8889 186.971 22.6676C186.83 22.4462 186.648 22.2736 186.427 22.1496C186.21 22.0212 185.951 21.957 185.65 21.957C185.349 21.957 185.088 22.0212 184.866 22.1496C184.649 22.2736 184.47 22.4462 184.329 22.6676C184.187 22.8889 184.083 23.1435 184.016 23.4312C183.95 23.7146 183.917 24.0156 183.917 24.3344ZM190.033 24.4871V24.3344C190.033 23.8164 190.108 23.3361 190.259 22.8934C190.409 22.4462 190.626 22.0589 190.909 21.7312C191.197 21.3992 191.547 21.1424 191.959 20.9609C192.375 20.775 192.844 20.682 193.366 20.682C193.893 20.682 194.362 20.775 194.774 20.9609C195.19 21.1424 195.542 21.3992 195.83 21.7312C196.118 22.0589 196.337 22.4462 196.487 22.8934C196.638 23.3361 196.713 23.8164 196.713 24.3344V24.4871C196.713 25.0051 196.638 25.4854 196.487 25.9281C196.337 26.3708 196.118 26.7582 195.83 27.0902C195.542 27.4178 195.193 27.6746 194.781 27.8605C194.369 28.0421 193.902 28.1328 193.38 28.1328C192.853 28.1328 192.381 28.0421 191.965 27.8605C191.554 27.6746 191.204 27.4178 190.916 27.0902C190.628 26.7582 190.409 26.3708 190.259 25.9281C190.108 25.4854 190.033 25.0051 190.033 24.4871ZM191.633 24.3344V24.4871C191.633 24.8103 191.666 25.1158 191.733 25.4035C191.799 25.6913 191.903 25.9436 192.045 26.1605C192.187 26.3775 192.368 26.5479 192.589 26.6719C192.811 26.7958 193.074 26.8578 193.38 26.8578C193.676 26.8578 193.933 26.7958 194.15 26.6719C194.371 26.5479 194.553 26.3775 194.695 26.1605C194.836 25.9436 194.94 25.6913 195.007 25.4035C195.077 25.1158 195.113 24.8103 195.113 24.4871V24.3344C195.113 24.0156 195.077 23.7146 195.007 23.4312C194.94 23.1435 194.834 22.8889 194.688 22.6676C194.546 22.4462 194.365 22.2736 194.143 22.1496C193.926 22.0212 193.667 21.957 193.366 21.957C193.065 21.957 192.804 22.0212 192.583 22.1496C192.366 22.2736 192.187 22.4462 192.045 22.6676C191.903 22.8889 191.799 23.1435 191.733 23.4312C191.666 23.7146 191.633 24.0156 191.633 24.3344ZM202.657 20.8148H204.111V27.8008C204.111 28.4471 203.974 28.9961 203.699 29.4477C203.425 29.8992 203.042 30.2423 202.55 30.477C202.059 30.716 201.49 30.8355 200.844 30.8355C200.569 30.8355 200.264 30.7957 199.927 30.716C199.595 30.6363 199.272 30.5079 198.958 30.3309C198.648 30.1582 198.389 29.9302 198.181 29.6469L198.931 28.7039C199.188 29.0094 199.471 29.2329 199.781 29.3746C200.091 29.5163 200.417 29.5871 200.757 29.5871C201.125 29.5871 201.437 29.5185 201.694 29.3813C201.955 29.2484 202.156 29.0514 202.298 28.7902C202.44 28.529 202.511 28.2103 202.511 27.834V22.4418L202.657 20.8148ZM197.776 24.4871V24.3477C197.776 23.8031 197.842 23.3073 197.975 22.8602C198.108 22.4086 198.298 22.0212 198.546 21.698C198.794 21.3704 199.095 21.1203 199.449 20.9477C199.803 20.7706 200.204 20.682 200.651 20.682C201.116 20.682 201.512 20.7661 201.84 20.9344C202.172 21.1026 202.449 21.3439 202.67 21.6582C202.891 21.9681 203.064 22.34 203.188 22.7738C203.316 23.2033 203.411 23.6814 203.473 24.2082V24.6531C203.416 25.1667 203.318 25.6359 203.181 26.0609C203.044 26.4859 202.862 26.8534 202.637 27.1633C202.411 27.4732 202.132 27.7122 201.8 27.8805C201.472 28.0487 201.085 28.1328 200.638 28.1328C200.2 28.1328 199.803 28.0421 199.449 27.8605C199.099 27.679 198.798 27.4245 198.546 27.0969C198.298 26.7693 198.108 26.3841 197.975 25.9414C197.842 25.4943 197.776 25.0095 197.776 24.4871ZM199.376 24.3477V24.4871C199.376 24.8147 199.407 25.1202 199.469 25.4035C199.536 25.6868 199.635 25.937 199.768 26.1539C199.905 26.3664 200.078 26.5346 200.286 26.6586C200.498 26.7781 200.749 26.8379 201.036 26.8379C201.413 26.8379 201.72 26.7582 201.959 26.5988C202.203 26.4395 202.389 26.2247 202.517 25.9547C202.65 25.6802 202.743 25.3747 202.796 25.0383V23.8363C202.77 23.5751 202.714 23.3316 202.63 23.1059C202.55 22.8801 202.442 22.6831 202.305 22.5148C202.167 22.3422 201.995 22.2094 201.787 22.1164C201.579 22.019 201.333 21.9703 201.05 21.9703C200.762 21.9703 200.512 22.0323 200.299 22.1562C200.087 22.2802 199.912 22.4507 199.775 22.6676C199.642 22.8845 199.542 23.1368 199.476 23.4246C199.409 23.7124 199.376 24.0201 199.376 24.3477ZM207.484 17.8V28H205.877V17.8H207.484ZM212.405 28.1328C211.874 28.1328 211.393 28.0465 210.964 27.8738C210.539 27.6967 210.176 27.451 209.875 27.1367C209.578 26.8224 209.35 26.4527 209.191 26.0277C209.032 25.6027 208.952 25.1445 208.952 24.6531V24.3875C208.952 23.8253 209.034 23.3161 209.198 22.8602C209.361 22.4042 209.589 22.0146 209.882 21.6914C210.174 21.3638 210.519 21.1137 210.918 20.941C211.316 20.7684 211.748 20.682 212.213 20.682C212.726 20.682 213.175 20.7684 213.561 20.941C213.946 21.1137 214.264 21.3572 214.517 21.6715C214.774 21.9814 214.964 22.351 215.088 22.7805C215.216 23.2099 215.28 23.6836 215.28 24.2016V24.8855H209.729V23.7367H213.7V23.6105C213.691 23.3228 213.634 23.0527 213.527 22.8004C213.426 22.548 213.268 22.3444 213.056 22.1895C212.843 22.0345 212.56 21.957 212.206 21.957C211.94 21.957 211.703 22.0146 211.495 22.1297C211.292 22.2404 211.121 22.402 210.984 22.6145C210.847 22.827 210.74 23.0837 210.665 23.3848C210.594 23.6814 210.559 24.0156 210.559 24.3875V24.6531C210.559 24.9674 210.601 25.2596 210.685 25.5297C210.774 25.7953 210.902 26.0277 211.07 26.227C211.239 26.4262 211.442 26.5833 211.681 26.6984C211.92 26.8091 212.193 26.8645 212.498 26.8645C212.883 26.8645 213.226 26.787 213.527 26.632C213.828 26.4771 214.09 26.2579 214.311 25.9746L215.154 26.7914C214.999 27.0172 214.798 27.2341 214.55 27.4422C214.302 27.6458 213.999 27.8118 213.64 27.9402C213.286 28.0686 212.874 28.1328 212.405 28.1328Z" fill="black"/>
</svg>
